<mxfile host="app.diagrams.net" modified="2023-05-16T18:14:39.948Z" agent="Mozilla/5.0 (Windows NT 10.0; Win64; x64) AppleWebKit/537.36 (KHTML, like Gecko) Chrome/113.0.0.0 Safari/537.36" etag="LuDVFZRKg0n4yVOzyJKx" version="21.3.2" type="github">
  <diagram id="C5RBs43oDa-KdzZeNtuy" name="Page-1">
    <mxGraphModel dx="1050" dy="549" grid="1" gridSize="10" guides="1" tooltips="1" connect="1" arrows="1" fold="1" page="1" pageScale="1" pageWidth="827" pageHeight="1169" math="0" shadow="0">
      <root>
        <mxCell id="WIyWlLk6GJQsqaUBKTNV-0" />
        <mxCell id="WIyWlLk6GJQsqaUBKTNV-1" parent="WIyWlLk6GJQsqaUBKTNV-0" />
        <mxCell id="bekB7zf8eqYywwff9znn-3" value="" style="edgeStyle=orthogonalEdgeStyle;rounded=0;orthogonalLoop=1;jettySize=auto;html=1;entryX=0.5;entryY=0;entryDx=0;entryDy=0;" edge="1" parent="WIyWlLk6GJQsqaUBKTNV-1" source="WIyWlLk6GJQsqaUBKTNV-3" target="bekB7zf8eqYywwff9znn-11">
          <mxGeometry relative="1" as="geometry">
            <mxPoint x="220" y="150" as="targetPoint" />
          </mxGeometry>
        </mxCell>
        <mxCell id="WIyWlLk6GJQsqaUBKTNV-3" value="START" style="rounded=1;whiteSpace=wrap;html=1;fontSize=12;glass=0;strokeWidth=1;shadow=0;" parent="WIyWlLk6GJQsqaUBKTNV-1" vertex="1">
          <mxGeometry x="160" y="20" width="120" height="40" as="geometry" />
        </mxCell>
        <mxCell id="bekB7zf8eqYywwff9znn-19" value="" style="edgeStyle=orthogonalEdgeStyle;rounded=0;orthogonalLoop=1;jettySize=auto;html=1;" edge="1" parent="WIyWlLk6GJQsqaUBKTNV-1" source="bekB7zf8eqYywwff9znn-6" target="bekB7zf8eqYywwff9znn-18">
          <mxGeometry relative="1" as="geometry" />
        </mxCell>
        <mxCell id="bekB7zf8eqYywwff9znn-6" value="sum = num[1]+num[2]&lt;br&gt;sum += num[3]&lt;br&gt;sum += num[4]" style="rounded=0;whiteSpace=wrap;html=1;" vertex="1" parent="WIyWlLk6GJQsqaUBKTNV-1">
          <mxGeometry x="160" y="180" width="120" height="60" as="geometry" />
        </mxCell>
        <mxCell id="bekB7zf8eqYywwff9znn-13" value="" style="edgeStyle=orthogonalEdgeStyle;rounded=0;orthogonalLoop=1;jettySize=auto;html=1;" edge="1" parent="WIyWlLk6GJQsqaUBKTNV-1" source="bekB7zf8eqYywwff9znn-11" target="bekB7zf8eqYywwff9znn-6">
          <mxGeometry relative="1" as="geometry" />
        </mxCell>
        <mxCell id="bekB7zf8eqYywwff9znn-11" value="num[1]&lt;br&gt;num[2]&lt;br&gt;num[3]&lt;br&gt;num[4]" style="shape=parallelogram;perimeter=parallelogramPerimeter;whiteSpace=wrap;html=1;fixedSize=1;" vertex="1" parent="WIyWlLk6GJQsqaUBKTNV-1">
          <mxGeometry x="160" y="90" width="120" height="60" as="geometry" />
        </mxCell>
        <mxCell id="bekB7zf8eqYywwff9znn-21" value="" style="edgeStyle=orthogonalEdgeStyle;rounded=0;orthogonalLoop=1;jettySize=auto;html=1;" edge="1" parent="WIyWlLk6GJQsqaUBKTNV-1" source="bekB7zf8eqYywwff9znn-18" target="bekB7zf8eqYywwff9znn-20">
          <mxGeometry relative="1" as="geometry" />
        </mxCell>
        <mxCell id="bekB7zf8eqYywwff9znn-18" value="sum /= 4" style="rounded=0;whiteSpace=wrap;html=1;" vertex="1" parent="WIyWlLk6GJQsqaUBKTNV-1">
          <mxGeometry x="160" y="270" width="120" height="60" as="geometry" />
        </mxCell>
        <mxCell id="bekB7zf8eqYywwff9znn-20" value="sum" style="shape=document;whiteSpace=wrap;html=1;boundedLbl=1;rounded=0;" vertex="1" parent="WIyWlLk6GJQsqaUBKTNV-1">
          <mxGeometry x="160" y="400" width="120" height="80" as="geometry" />
        </mxCell>
      </root>
    </mxGraphModel>
  </diagram>
</mxfile>
